<svg width="24" height="24" viewBox="0 0 24 24" fill="none" xmlns="http://www.w3.org/2000/svg">
<g id="002-delivery-truck 1">
<g id="Group">
<path id="Vector" d="M10.3125 14.8125C11.8633 14.8125 13.125 13.5508 13.125 12V8.25C13.125 6.69919 11.8633 5.4375 10.3125 5.4375H6.5625C5.01169 5.4375 3.75 6.69919 3.75 8.25V12C3.75 13.5508 5.01169 14.8125 6.5625 14.8125H10.3125ZM5.625 12V8.25C5.625 7.73306 6.04556 7.3125 6.5625 7.3125H7.5V8.25C7.5 8.76778 7.91972 9.1875 8.4375 9.1875C8.95528 9.1875 9.375 8.76778 9.375 8.25V7.3125H10.3125C10.8294 7.3125 11.25 7.73306 11.25 8.25V12C11.25 12.5169 10.8294 12.9375 10.3125 12.9375H6.5625C6.04556 12.9375 5.625 12.5169 5.625 12Z" fill="#FAA61A"/>
<path id="Vector_2" d="M21.1875 11.0625H16.875V7.3125H19.3125C19.8294 7.3125 20.25 7.73306 20.25 8.25C20.25 8.76778 20.6697 9.1875 21.1875 9.1875C21.7053 9.1875 22.125 8.76778 22.125 8.25C22.125 6.69919 20.8633 5.4375 19.3125 5.4375H16.875V4.5C16.875 2.94919 15.6133 1.6875 14.0625 1.6875H2.8125C1.26169 1.6875 0 2.94919 0 4.5V17.625C0 19.1758 1.26169 20.4375 2.8125 20.4375H3.91125C4.29825 21.5287 5.34033 22.3125 6.5625 22.3125C7.78467 22.3125 8.8267 21.5287 9.21375 20.4375H15.1613C15.5483 21.5287 16.5903 22.3125 17.8125 22.3125C19.0347 22.3125 20.0767 21.5287 20.4637 20.4375H21.1875C22.7383 20.4375 24 19.1758 24 17.625V13.875C24 12.3242 22.7383 11.0625 21.1875 11.0625ZM1.875 17.625V4.5C1.875 3.98306 2.29556 3.5625 2.8125 3.5625H14.0625C14.5794 3.5625 15 3.98306 15 4.5V18.5625H9.21375C8.82675 17.4713 7.78467 16.6875 6.5625 16.6875C5.34033 16.6875 4.2983 17.4713 3.91125 18.5625H2.8125C2.29556 18.5625 1.875 18.1419 1.875 17.625ZM6.5625 20.4375C6.04556 20.4375 5.625 20.0169 5.625 19.5C5.625 18.9831 6.04556 18.5625 6.5625 18.5625C7.0792 18.5625 7.49958 18.9827 7.49995 19.4993C7.49995 19.4996 7.49991 19.4998 7.49991 19.5C7.49991 19.5002 7.49995 19.5005 7.49995 19.5007C7.49958 20.0173 7.0792 20.4375 6.5625 20.4375ZM17.8125 20.4375C17.2956 20.4375 16.875 20.0169 16.875 19.5C16.875 18.9831 17.2956 18.5625 17.8125 18.5625C18.3294 18.5625 18.75 18.9831 18.75 19.5C18.75 20.0169 18.3294 20.4375 17.8125 20.4375ZM22.125 17.625C22.125 18.1419 21.7044 18.5625 21.1875 18.5625H20.4637C20.0767 17.4713 19.0347 16.6875 17.8125 16.6875C17.4839 16.6875 17.1684 16.7447 16.875 16.8488V12.9375H21.1875C21.7044 12.9375 22.125 13.3581 22.125 13.875V17.625Z" fill="#FAA61A"/>
</g>
</g>
</svg>
