<svg viewBox="0 0 31 30" fill="none" xmlns="http://www.w3.org/2000/svg">
<g id="ic add">
<rect id="Rectangle 179" x="0.5" width="30" height="30" rx="10" fill="currentColor"/>
<path id="add" d="M14.0525 15.9475H9.94749C9.68164 15.9475 9.45722 15.8561 9.27425 15.6732C9.09142 15.4903 9 15.2659 9 15C9 14.7341 9.09142 14.5097 9.27425 14.3268C9.45722 14.1439 9.68164 14.0525 9.94749 14.0525H14.0525V9.94749C14.0525 9.68164 14.1439 9.45722 14.3268 9.27425C14.5097 9.09142 14.7341 9 15 9C15.2659 9 15.4903 9.09142 15.6732 9.27425C15.8561 9.45722 15.9475 9.68164 15.9475 9.94749V14.0525H20.0525C20.3184 14.0525 20.5428 14.1439 20.7257 14.3268C20.9086 14.5097 21 14.7341 21 15C21 15.2659 20.9086 15.4903 20.7257 15.6732C20.5428 15.8561 20.3184 15.9475 20.0525 15.9475H15.9475V20.0525C15.9475 20.3184 15.8561 20.5428 15.6732 20.7257C15.4903 20.9086 15.2659 21 15 21C14.7341 21 14.5097 20.9086 14.3268 20.7257C14.1439 20.5428 14.0525 20.3184 14.0525 20.0525V15.9475Z" fill="white"/>
</g>
</svg>
