<svg width="28" height="28" viewBox="0 0 28 28" fill="none" xmlns="http://www.w3.org/2000/svg">
<g id="bars-staggered 2" clip-path="url(#clip0_2087_7312)">
<path id="Vector" d="M21 5.83333H1.16667C0.525 5.83333 0 5.30833 0 4.66667C0 4.025 0.525 3.5 1.16667 3.5H21C21.6417 3.5 22.1667 4.025 22.1667 4.66667C22.1667 5.30833 21.6417 5.83333 21 5.83333ZM22.1667 23.3333C22.1667 22.6917 21.6417 22.1667 21 22.1667H1.16667C0.525 22.1667 0 22.6917 0 23.3333C0 23.975 0.525 24.5 1.16667 24.5H21C21.6417 24.5 22.1667 23.975 22.1667 23.3333ZM28 14C28 13.3583 27.475 12.8333 26.8333 12.8333H7C6.35833 12.8333 5.83333 13.3583 5.83333 14C5.83333 14.6417 6.35833 15.1667 7 15.1667H26.8333C27.475 15.1667 28 14.6417 28 14Z" fill="white"/>
</g>
<defs>
<clipPath id="clip0_2087_7312">
<rect width="28" height="28" fill="white"/>
</clipPath>
</defs>
</svg>
