<svg width="24" height="24" viewBox="0 0 24 24" fill="none" xmlns="http://www.w3.org/2000/svg">
<g id="people-carry-box 1" clip-path="url(#clip0_2087_8069)">
<path id="Vector" d="M2.99981 2.5C2.99981 1.12 4.11981 0 5.49981 0C6.87981 0 7.99981 1.119 7.99981 2.5C7.99981 3.881 6.88081 5 5.49981 5C4.11881 5 2.99981 3.881 2.99981 2.5ZM18.4998 5C19.8808 5 20.9998 3.881 20.9998 2.5C20.9998 1.119 19.8808 0 18.4998 0C17.1188 0 15.9998 1.119 15.9998 2.5C15.9998 3.881 17.1188 5 18.4998 5ZM2.41781 18.038C1.88781 17.892 1.33381 18.194 1.18181 18.726L0.0388131 22.726C-0.113187 23.256 0.194813 23.81 0.725813 23.962C0.817813 23.987 0.910813 24 1.00081 24C1.43581 24 1.83581 23.714 1.96181 23.274L3.10481 19.274C3.25681 18.744 2.94881 18.19 2.41781 18.038ZM23.9608 22.726L22.8178 18.726C22.6658 18.195 22.1128 17.892 21.5818 18.038C21.0508 18.19 20.7438 18.743 20.8948 19.274L22.0378 23.274C22.1628 23.713 22.5638 24 22.9988 24C23.0898 24 23.1828 23.987 23.2738 23.962C23.8048 23.81 24.1118 23.257 23.9608 22.726ZM22.1378 16.014L18.9998 18.06V23C18.9998 23.553 18.5518 24 17.9998 24C17.4478 24 16.9998 23.553 16.9998 23V17.518C16.9998 17.18 17.1708 16.865 17.4538 16.68L18.9508 15.704L17.3168 9.588L15.9998 11.81V14.501C15.9998 15.88 14.8778 17.001 13.4998 17.001H10.4998C9.12181 17.001 7.99981 15.88 7.99981 14.501V11.81L6.68881 9.599L5.09981 15.737L6.54581 16.68C6.82881 16.865 6.99981 17.18 6.99981 17.518V23C6.99981 23.553 6.55181 24 5.99981 24C5.44781 24 4.99981 23.553 4.99981 23V18.06L1.85081 16.007C0.462813 15.129 -0.252187 13.444 0.0828131 11.824L0.830813 9.064C1.18981 7.313 2.80281 6 4.65081 6C6.02681 6 7.31681 6.735 8.01881 7.919L8.97581 9.533C9.39881 9.204 9.92381 9 10.5008 9H13.5008C14.0768 9 14.6018 9.204 15.0258 9.533L15.9828 7.919C16.6848 6.735 17.9758 6 19.3508 6C21.1988 6 22.8108 7.313 23.1848 9.124L23.9028 11.765C24.2518 13.446 23.5368 15.129 22.1378 16.014Z" fill="#90A4B7"/>
</g>
<defs>
<clipPath id="clip0_2087_8069">
<rect width="24" height="24" fill="white"/>
</clipPath>
</defs>
</svg>
