<svg width="16" height="16" viewBox="0 0 16 16" fill="none" xmlns="http://www.w3.org/2000/svg">
<g id="calendar 2" clip-path="url(#clip0_2087_6823)">
<path id="Vector" d="M0 12.6666C0.00105857 13.5504 0.352588 14.3976 0.97748 15.0225C1.60237 15.6474 2.4496 15.9989 3.33333 16H12.6667C13.5504 15.9989 14.3976 15.6474 15.0225 15.0225C15.6474 14.3976 15.9989 13.5504 16 12.6666V6.66663H0V12.6666ZM11.3333 9.66663C11.5311 9.66663 11.7245 9.72527 11.8889 9.83516C12.0534 9.94504 12.1815 10.1012 12.2572 10.2839C12.3329 10.4667 12.3527 10.6677 12.3141 10.8617C12.2755 11.0557 12.1803 11.2339 12.0404 11.3737C11.9006 11.5136 11.7224 11.6088 11.5284 11.6474C11.3344 11.686 11.1334 11.6662 10.9507 11.5905C10.7679 11.5148 10.6117 11.3866 10.5019 11.2222C10.392 11.0577 10.3333 10.8644 10.3333 10.6666C10.3333 10.4014 10.4387 10.1471 10.6262 9.95952C10.8138 9.77198 11.0681 9.66663 11.3333 9.66663ZM8 9.66663C8.19778 9.66663 8.39112 9.72527 8.55557 9.83516C8.72002 9.94504 8.84819 10.1012 8.92388 10.2839C8.99957 10.4667 9.01937 10.6677 8.98079 10.8617C8.9422 11.0557 8.84696 11.2339 8.70711 11.3737C8.56726 11.5136 8.38907 11.6088 8.19509 11.6474C8.00111 11.686 7.80004 11.6662 7.61732 11.5905C7.43459 11.5148 7.27841 11.3866 7.16853 11.2222C7.05865 11.0577 7 10.8644 7 10.6666C7 10.4014 7.10536 10.1471 7.29289 9.95952C7.48043 9.77198 7.73478 9.66663 8 9.66663ZM4.66667 9.66663C4.86445 9.66663 5.05779 9.72527 5.22224 9.83516C5.38669 9.94504 5.51486 10.1012 5.59055 10.2839C5.66623 10.4667 5.68604 10.6677 5.64745 10.8617C5.60887 11.0557 5.51363 11.2339 5.37377 11.3737C5.23392 11.5136 5.05574 11.6088 4.86176 11.6474C4.66778 11.686 4.46671 11.6662 4.28398 11.5905C4.10126 11.5148 3.94508 11.3866 3.8352 11.2222C3.72532 11.0577 3.66667 10.8644 3.66667 10.6666C3.66667 10.4014 3.77202 10.1471 3.95956 9.95952C4.1471 9.77198 4.40145 9.66663 4.66667 9.66663Z" fill="white"/>
<path id="Vector_2" d="M12.6667 1.33333H12V0.666667C12 0.489856 11.9298 0.320286 11.8047 0.195262C11.6797 0.0702379 11.5101 0 11.3333 0C11.1565 0 10.987 0.0702379 10.8619 0.195262C10.7369 0.320286 10.6667 0.489856 10.6667 0.666667V1.33333H5.33333V0.666667C5.33333 0.489856 5.2631 0.320286 5.13807 0.195262C5.01305 0.0702379 4.84348 0 4.66667 0C4.48986 0 4.32029 0.0702379 4.19526 0.195262C4.07024 0.320286 4 0.489856 4 0.666667V1.33333H3.33333C2.4496 1.33439 1.60237 1.68592 0.97748 2.31081C0.352588 2.93571 0.00105857 3.78294 0 4.66667L0 5.33333H16V4.66667C15.9989 3.78294 15.6474 2.93571 15.0225 2.31081C14.3976 1.68592 13.5504 1.33439 12.6667 1.33333Z" fill="white"/>
</g>
<defs>
<clipPath id="clip0_2087_6823">
<rect width="16" height="16" fill="white"/>
</clipPath>
</defs>
</svg>
