<svg width="12" height="10" viewBox="0 0 12 10" fill="none" xmlns="http://www.w3.org/2000/svg">
<path id="check_small" d="M3.9998 6.8875L9.89981 0.987502C10.0831 0.804168 10.3165 0.712502 10.5998 0.712502C10.8831 0.712502 11.1165 0.804168 11.2998 0.987502C11.4831 1.17083 11.5748 1.40417 11.5748 1.6875C11.5748 1.97083 11.4831 2.20417 11.2998 2.3875L4.6998 8.9875C4.4998 9.1875 4.26647 9.2875 3.9998 9.2875C3.73314 9.2875 3.4998 9.1875 3.2998 8.9875L0.699805 6.3875C0.516471 6.20417 0.424805 5.97083 0.424805 5.6875C0.424805 5.40417 0.516471 5.17084 0.699805 4.9875C0.883138 4.80417 1.11647 4.7125 1.3998 4.7125C1.68314 4.7125 1.91647 4.80417 2.0998 4.9875L3.9998 6.8875Z" fill="white"/>
</svg>
