<svg width="24" height="24" viewBox="0 0 24 24" fill="none" xmlns="http://www.w3.org/2000/svg">
<g id="dorm-room 1" clip-path="url(#clip0_2087_7328)">
<path id="Vector" d="M16.5 10.0001H15.5C14.121 10.0001 13 11.1221 13 12.5001V13.0001H8.00002V11.5001C8.00002 10.6711 7.32902 10.0001 6.50002 10.0001C5.67102 10.0001 5.00002 10.6711 5.00002 11.5001V22.5001C5.00002 23.3291 5.67102 24.0001 6.50002 24.0001C7.15202 24.0001 7.70202 23.5811 7.90802 23.0001H16.092C16.299 23.5811 16.848 24.0001 17.5 24.0001C18.328 24.0001 19 23.3291 19 22.5001V12.5001C19 11.1221 17.879 10.0001 16.5 10.0001ZM8.00002 20.0001V16.0001H16V17.0001H15.5C14.121 17.0001 13 18.1221 13 19.5001V20.0001H8.00002ZM10.5 13.0001C9.67202 13.0001 9.00002 12.3281 9.00002 11.5001C9.00002 10.6721 9.67202 10.0001 10.5 10.0001C11.328 10.0001 12 10.6721 12 11.5001C12 12.3281 11.328 13.0001 10.5 13.0001ZM10.5 20.0001C9.67202 20.0001 9.00002 19.3281 9.00002 18.5001C9.00002 17.6721 9.67202 17.0001 10.5 17.0001C11.328 17.0001 12 17.6721 12 18.5001C12 19.3281 11.328 20.0001 10.5 20.0001ZM24 9.88611V22.5001C24 23.3291 23.328 24.0001 22.5 24.0001C21.672 24.0001 21 23.3291 21 22.5001V9.88611C21 9.05311 20.588 8.27911 19.898 7.81411L13.398 3.42711C12.548 2.85511 11.451 2.85411 10.601 3.42711L4.10102 7.81311C3.41102 8.27911 2.99902 9.05411 2.99902 9.88611V22.5001C2.99902 23.3291 2.32802 24.0001 1.49902 24.0001C0.670023 24.0001 -0.000976562 23.3291 -0.000976562 22.5001V9.88611C-0.000976562 8.05511 0.905023 6.35111 2.42302 5.32711L8.92402 0.941111C10.793 -0.319889 13.207 -0.319889 15.076 0.941111L21.576 5.32811C23.094 6.35111 24 8.05611 24 9.88711V9.88611Z" fill="#3FA9F5"/>
</g>
<defs>
<clipPath id="clip0_2087_7328">
<rect width="24" height="24" fill="white"/>
</clipPath>
</defs>
</svg>
