<svg width="30" height="30" viewBox="0 0 30 30" fill="none" xmlns="http://www.w3.org/2000/svg">
<g id="ic edit">
<rect id="Rectangle 179" width="30" height="30" rx="10" fill="#90A4B7"/>
<g id="Vector">
<path d="M22.9915 10.987C22.9724 10.8663 22.7788 9.78222 21.9934 8.99064C21.2045 8.21883 20.1163 8.02793 19.995 8.00883C19.8334 7.98224 19.6684 8.01633 19.53 8.10224C19.4816 8.13224 18.7705 8.57746 17.3666 9.76449C18.0886 10.0195 19.022 10.462 19.7789 11.2024C20.5384 11.9456 20.9925 12.8599 21.2529 13.569C22.4256 12.1986 22.8668 11.5045 22.8961 11.4567C22.9834 11.317 23.0174 11.1499 22.9915 10.987Z" fill="white"/>
<path d="M16.1482 10.8308C15.4166 11.4908 14.5651 12.2926 13.5901 13.2608C9.45626 17.3653 8.37218 19.0064 8.32786 19.0739C8.26582 19.1694 8.22832 19.2791 8.21946 19.3923L8.00196 22.168C7.98696 22.3671 8.05855 22.5621 8.19968 22.7032C8.32786 22.8314 8.50173 22.903 8.68241 22.903C8.69945 22.903 8.71718 22.903 8.73491 22.9009L11.531 22.6855C11.6435 22.6766 11.7519 22.6405 11.8467 22.5798C11.9149 22.5361 13.5669 21.4596 17.7 17.3558C18.6968 16.3658 19.5191 15.504 20.192 14.7669C20.0891 14.3244 19.7298 13.0617 18.825 12.1774C17.9073 11.2795 16.5873 10.9277 16.1482 10.8308Z" fill="white"/>
</g>
</g>
</svg>
