<svg width="30" height="30" viewBox="0 0 30 30" fill="none" xmlns="http://www.w3.org/2000/svg">
<g id="ic filter">
<rect id="Rectangle 179" width="30" height="30" rx="10" fill="currentColor"/>
<path id="filter_list" d="M14.2928 21C13.9723 21 13.7037 20.8919 13.487 20.6758C13.2701 20.4595 13.1617 20.1915 13.1617 19.8719C13.1617 19.5523 13.2728 19.2814 13.4952 19.0591C13.7175 18.8369 13.9874 18.7258 14.3049 18.7258H16.0672C16.3878 18.7258 16.6564 18.8369 16.8731 19.0591C17.09 19.2814 17.1984 19.5523 17.1984 19.8719C17.1984 20.1915 17.0873 20.4595 16.8649 20.6758C16.6426 20.8919 16.3727 21 16.0552 21H14.2928ZM10.7684 16.1373C10.4479 16.1373 10.1792 16.0292 9.96252 15.8129C9.74566 15.5966 9.63723 15.3287 9.63723 15.0092C9.63723 14.6895 9.74566 14.4186 9.96252 14.1964C10.1792 13.9741 10.4479 13.8629 10.7684 13.8629H19.5796C19.9 13.8629 20.1686 13.9741 20.3855 14.1964C20.6022 14.4186 20.7106 14.6895 20.7106 15.0092C20.7106 15.3287 20.6022 15.5966 20.3855 15.8129C20.1686 16.0292 19.9 16.1373 19.5796 16.1373H10.7684ZM8.13117 11.2744C7.81063 11.2744 7.542 11.1663 7.32529 10.95C7.10843 10.7339 7 10.4659 7 10.1463C7 9.82673 7.11116 9.55581 7.33348 9.33348C7.55581 9.11116 7.82573 9 8.14325 9H22.2289C22.5495 9 22.8181 9.11116 23.0348 9.33348C23.2517 9.55581 23.3601 9.82673 23.3601 10.1463C23.3601 10.4659 23.2489 10.7339 23.0266 10.95C22.8043 11.1663 22.5344 11.2744 22.2168 11.2744H8.13117Z" fill="white"/>
</g>
</svg>
