<svg xmlns="http://www.w3.org/2000/svg" xmlns:xlink="http://www.w3.org/1999/xlink" width="500" zoomAndPan="magnify" viewBox="0 0 375 374.999991" height="500" preserveAspectRatio="xMidYMid meet" version="1.0"><path fill="#90A4B7" d="M 82.03125 288.28125 L 82.03125 75 C 73.828125 64.453125 60.9375 58.59375 46.875 58.59375 L 35.15625 58.59375 C 28.125 58.59375 23.4375 63.28125 23.4375 70.3125 L 23.4375 292.96875 C 23.4375 300 28.125 304.6875 35.15625 304.6875 L 46.875 304.6875 C 60.9375 304.6875 73.828125 298.828125 82.03125 288.28125 Z M 82.03125 288.28125 " fill-opacity="1" fill-rule="nonzero"/><path fill="#90A4B7" d="M 105.46875 269.53125 L 187.5 269.53125 C 194.53125 269.53125 199.21875 264.84375 199.21875 257.8125 L 199.21875 199.21875 L 234.375 199.21875 C 235.546875 199.21875 237.890625 199.21875 239.0625 198.046875 L 301.171875 171.09375 C 307.03125 168.75 314.0625 168.75 319.921875 172.265625 C 330.46875 179.296875 331.640625 196.875 319.921875 205.078125 C 314.0625 208.59375 308.203125 209.765625 302.34375 207.421875 C 290.625 202.734375 277.734375 200.390625 264.84375 200.390625 C 257.8125 200.390625 253.125 205.078125 253.125 212.109375 C 253.125 219.140625 257.8125 223.828125 264.84375 223.828125 C 274.21875 223.828125 284.765625 226.171875 294.140625 229.6875 C 307.03125 235.546875 322.265625 233.203125 333.984375 225 C 345.703125 216.796875 352.734375 203.90625 352.734375 189.84375 C 352.734375 175.78125 345.703125 161.71875 332.8125 153.515625 C 319.921875 145.3125 305.859375 144.140625 291.796875 150 L 232.03125 175.78125 L 199.21875 175.78125 L 199.21875 105.46875 C 199.21875 98.4375 194.53125 93.75 187.5 93.75 L 105.46875 93.75 Z M 105.46875 269.53125 " fill-opacity="1" fill-rule="nonzero"/></svg>