<svg viewBox="0 0 13 16" xmlns="http://www.w3.org/2000/svg">
<path id="electric_bolt" d="M5.32379 10.1758L0.776611 9.59243C0.406271 9.54696 0.164257 9.3463 0.0505673 8.99047C-0.063122 8.63463 0.0148924 8.32846 0.28461 8.07194L8.47965 0.214834C8.55126 0.143223 8.6375 0.0895138 8.73839 0.0537082C8.83927 0.0179026 8.97746 0 9.15296 0C9.43927 0 9.65731 0.121987 9.80707 0.365962C9.95682 0.610067 9.96166 0.860641 9.82157 1.11768L7.32786 5.85696L11.8797 6.43109C12.2533 6.47643 12.4961 6.67702 12.6081 7.03286C12.7203 7.38869 12.6415 7.69487 12.3719 7.95139L4.19552 15.7852C4.12391 15.8568 4.03766 15.9105 3.93678 15.9463C3.8359 15.9821 3.69771 16 3.52221 16C3.23589 16 3.01707 15.8788 2.86575 15.6364C2.71442 15.3939 2.70881 15.1441 2.84889 14.887L5.32379 10.1758Z" fill="currentColor"/>
</svg>
