<svg width="4" height="13" viewBox="0 0 4 13" xmlns="http://www.w3.org/2000/svg">
<path id="more_vert" d="M1.57292 12.4583C1.13764 12.4583 0.766666 12.3037 0.46 11.9944C0.153333 11.6852 0 11.3135 0 10.8792C0 10.4435 0.154653 10.072 0.463958 9.76479C0.773264 9.45757 1.145 9.30396 1.57917 9.30396C2.01611 9.30396 2.38708 9.45882 2.69208 9.76854C2.99708 10.0784 3.14958 10.4508 3.14958 10.8858C3.14958 11.321 2.99562 11.6918 2.68771 11.9983C2.37979 12.305 2.00819 12.4583 1.57292 12.4583ZM1.57292 7.80396C1.13764 7.80396 0.766666 7.64931 0.46 7.34C0.153333 7.03069 0 6.65896 0 6.22479C0 5.78785 0.154653 5.41687 0.463958 5.11188C0.773264 4.80688 1.145 4.65437 1.57917 4.65437C2.01611 4.65437 2.38708 4.80833 2.69208 5.11625C2.99708 5.42417 3.14958 5.79576 3.14958 6.23104C3.14958 6.66632 2.99562 7.03729 2.68771 7.34396C2.37979 7.65063 2.00819 7.80396 1.57292 7.80396ZM1.57292 3.15437C1.13764 3.15437 0.766666 2.99917 0.46 2.68875C0.153333 2.37819 0 2.00493 0 1.56896C0 1.13285 0.154653 0.762362 0.463958 0.4575C0.773264 0.1525 1.145 0 1.57917 0C2.01611 0 2.38708 0.153958 2.69208 0.461875C2.99708 0.769791 3.14958 1.14174 3.14958 1.57771C3.14958 2.01382 2.99562 2.38563 2.68771 2.69313C2.37979 3.00063 2.00819 3.15437 1.57292 3.15437Z" fill="currentColor" />
</svg>
