<svg width="24" height="24" viewBox="0 0 24 24" fill="none" xmlns="http://www.w3.org/2000/svg">
<g id="003-armchair 2" clip-path="url(#clip0_2087_7012)">
<path id="Vector" d="M13.3588 14.0114C11.8222 14.0114 10.5609 15.2613 10.5473 16.7977C10.5467 16.8622 10.4971 16.9168 10.439 16.9168H5.73488C5.68282 16.9168 5.62673 16.8875 5.62673 16.8231C5.62673 15.2727 4.36542 14.0114 2.81507 14.0114C1.26473 14.0114 0.00341797 15.2727 0.00341797 16.8231C0.00341797 19.1043 1.34669 21.0775 3.28368 21.994V23.0627C3.28368 23.5804 3.70327 24 4.2209 24C4.73852 24 5.15812 23.5804 5.15812 23.0627V22.5124C5.34317 22.5306 5.53071 22.5401 5.72045 22.5401H10.4534C10.6431 22.5401 10.8307 22.5306 11.0157 22.5124V23.0556C11.0157 23.5732 11.4353 23.9928 11.9529 23.9928C12.4706 23.9928 12.8902 23.5732 12.8902 23.0556V21.994C14.8272 21.0775 16.1704 19.1043 16.1704 16.8231C16.1704 15.2727 14.9091 14.0114 13.3588 14.0114ZM10.4534 20.6657H5.72045C3.60163 20.6657 1.87785 18.9419 1.87785 16.8231C1.87785 16.3063 2.29829 15.8858 2.81507 15.8858C3.33185 15.8858 3.75229 16.3063 3.75229 16.8231C3.75229 17.9083 4.64166 18.7912 5.73488 18.7912H10.439C11.5225 18.7912 12.4119 17.9044 12.4216 16.8143C12.4262 16.3023 12.8466 15.8858 13.3588 15.8858C13.8756 15.8858 14.296 16.3063 14.296 16.8231C14.296 18.9419 12.5722 20.6657 10.4534 20.6657ZM2.31699 11.5617C3.24455 9.18699 5.5539 7.59147 8.06349 7.59147C10.5731 7.59147 12.8824 9.18699 13.81 11.5617C13.9983 12.0438 13.7601 12.5873 13.278 12.7756C13.166 12.8194 13.0506 12.8401 12.9372 12.8401C12.5624 12.8401 12.2086 12.6138 12.064 12.2436C11.4151 10.5822 9.80737 9.4659 8.06349 9.4659C6.31961 9.4659 4.71191 10.5822 4.06293 12.2437C3.8746 12.7258 3.3311 12.9639 2.84895 12.7757C2.36685 12.5873 2.12865 12.0438 2.31699 11.5617ZM23.059 23.0556C23.059 23.5732 22.6394 23.9928 22.1218 23.9928H20.3879C18.8376 23.9928 17.5763 22.7315 17.5763 21.1811V11.3403C17.5763 10.8227 17.9958 10.4031 18.5135 10.4031C19.0311 10.4031 19.4507 10.8227 19.4507 11.3403V21.1811C19.4507 21.6979 19.8711 22.1183 20.3879 22.1183H22.1218C22.6394 22.1183 23.059 22.5379 23.059 23.0556ZM20.8565 12.7462V11.3403C20.8565 10.8227 21.2761 10.4031 21.7937 10.4031C22.3114 10.4031 22.731 10.8227 22.731 11.3403V12.7462C22.731 13.2638 22.3114 13.6834 21.7937 13.6834C21.2761 13.6834 20.8565 13.2638 20.8565 12.7462ZM21.6523 8.99729H15.3746C14.6569 8.99729 13.9888 8.67536 13.5416 8.11401C13.0947 7.55299 12.9303 6.8303 13.0906 6.13128C13.3851 4.84682 13.8666 3.31564 14.2186 2.25734C14.6677 0.907133 15.9256 0 17.3487 0H19.6782C21.1014 0 22.3593 0.907133 22.8084 2.25729C23.1604 3.3156 23.6418 4.84682 23.9364 6.13123C24.0966 6.83026 23.9322 7.55295 23.4853 8.11397C23.0381 8.67536 22.37 8.99729 21.6523 8.99729ZM17.3487 1.87444C16.7342 1.87444 16.1911 2.26605 15.9972 2.84891C15.6581 3.86837 15.1956 5.33811 14.9177 6.55022C14.8738 6.74122 14.9553 6.88021 15.0078 6.94605C15.0604 7.01208 15.178 7.12281 15.3747 7.12281H21.6524C21.8491 7.12281 21.9667 7.01203 22.0193 6.94605C22.0717 6.88021 22.1532 6.74122 22.1094 6.55022C21.8314 5.33807 21.3689 3.86837 21.0298 2.84886C20.8359 2.26605 20.2927 1.87444 19.6782 1.87444H17.3487Z" fill="currentColor"/>
</g>
<defs>
<clipPath id="clip0_2087_7012">
<rect width="24" height="24" fill="white"/>
</clipPath>
</defs>
</svg>
