<svg width="24" height="24" viewBox="0 0 24 24" fill="none" xmlns="http://www.w3.org/2000/svg">
<g id="box-up 1" clip-path="url(#clip0_2087_3703)">
<path id="Vector" d="M20 19C20 19.552 19.552 20 19 20H9C8.448 20 8 19.552 8 19C8 18.448 8.448 18 9 18H19C19.552 18 20 18.448 20 19ZM24 5V19C24 21.757 21.757 24 19 24H5C2.243 24 0 21.757 0 19V5C0 2.243 2.243 0 5 0H19C21.757 0 24 2.243 24 5ZM22 5C22 3.346 20.654 2 19 2H5C3.346 2 2 3.346 2 5V19C2 20.654 3.346 22 5 22H19C20.654 22 22 20.654 22 19V5ZM19.093 7.867C17.939 6.713 16.061 6.713 14.906 7.867L13.999 8.774L13.092 7.867C11.938 6.713 10.06 6.713 8.905 7.867L7.291 9.481C6.9 9.872 6.9 10.504 7.291 10.895C7.682 11.286 8.314 11.286 8.705 10.895L9.998 9.602V15C9.998 15.552 10.446 16 10.998 16C11.55 16 11.998 15.552 11.998 15V9.602L13.291 10.895C13.486 11.09 13.742 11.188 13.998 11.188C14.254 11.188 14.51 11.09 14.705 10.895L15.998 9.602V15C15.998 15.552 16.446 16 16.998 16C17.55 16 17.998 15.552 17.998 15V9.602L19.291 10.895C19.486 11.09 19.742 11.188 19.998 11.188C20.254 11.188 20.51 11.09 20.705 10.895C21.096 10.504 21.096 9.872 20.705 9.481L19.091 7.867H19.093Z" fill="white"/>
</g>
<defs>
<clipPath id="clip0_2087_3703">
<rect width="24" height="24" fill="white"/>
</clipPath>
</defs>
</svg>
