<svg width="30" height="30" viewBox="0 0 30 30" fill="none" xmlns="http://www.w3.org/2000/svg">
<g id="ic transfer">
<rect id="Rectangle 179" width="30" height="30" rx="10" fill="currentColor"/>
<path id="forward" d="M20.5091 13.6255L17.6486 10.7647C17.44 10.5563 17.3358 10.3092 17.3358 10.0235C17.3358 9.73772 17.44 9.4943 17.6486 9.29321C17.857 9.09774 18.1022 9 18.3843 9C18.6664 9 18.9052 9.09774 19.1005 9.29321L22.6958 12.8883C22.7963 12.9889 22.8721 13.1034 22.9234 13.2317C22.9745 13.3602 23 13.4914 23 13.6255C23 13.7595 22.9745 13.8908 22.9234 14.0192C22.8721 14.1475 22.7963 14.262 22.6958 14.3626L19.1005 17.9577C18.8994 18.1589 18.6574 18.2581 18.3745 18.2552C18.0916 18.2524 17.8497 18.1532 17.6486 17.9577C17.44 17.7566 17.3343 17.5146 17.3315 17.2318C17.3287 16.9489 17.4279 16.7069 17.629 16.5058L20.5091 13.6255ZM14.8415 14.6642H11.1747C10.5879 14.6642 10.0917 14.867 9.6861 15.2726C9.28039 15.6783 9.07754 16.1746 9.07754 16.7614V19.2352C9.07754 19.5237 8.9766 19.769 8.77473 19.971C8.57272 20.173 8.3274 20.274 8.03877 20.274C7.75027 20.274 7.50501 20.173 7.30301 19.971C7.101 19.769 7 19.5237 7 19.2352V16.7614C7 15.6104 7.40806 14.6269 8.22418 13.8109C9.0403 12.9948 10.0238 12.5867 11.1747 12.5867H14.8415L13.0086 10.7538C12.8074 10.5527 12.7068 10.3092 12.7068 10.0235C12.7068 9.73772 12.8074 9.4943 13.0086 9.29321C13.2097 9.09774 13.4531 9 13.7389 9C14.0246 9 14.2652 9.09774 14.4605 9.29321L18.0558 12.8883C18.1563 12.9889 18.2322 13.1034 18.2834 13.2317C18.3345 13.3602 18.36 13.4914 18.36 13.6255C18.36 13.7595 18.3345 13.8908 18.2834 14.0192C18.2322 14.1475 18.1563 14.262 18.0558 14.3626L14.4605 17.9577C14.2594 18.1589 14.0174 18.2581 13.7346 18.2552C13.4517 18.2524 13.2097 18.1532 13.0086 17.9577C12.8074 17.7566 12.7054 17.5146 12.7027 17.2318C12.6998 16.9489 12.7989 16.7069 13 16.5058L14.8415 14.6642Z" fill="white"/>
</g>
</svg>
