<svg width="18" height="18" viewBox="0 0 18 18" xmlns="http://www.w3.org/2000/svg">
<g id="truck-couch 2" clip-path="url(#clip0_2087_6847)">
<path id="Vector" d="M18.0002 15.375C18.0007 15.7869 17.9044 16.1931 17.7189 16.5608C17.5334 16.9285 17.264 17.2474 16.9324 17.4918C16.6008 17.7361 16.2164 17.899 15.8103 17.9673C15.4041 18.0355 14.9876 18.0073 14.5944 17.8848C14.2012 17.7623 13.8423 17.549 13.5468 17.2621C13.2512 16.9752 13.0274 16.6228 12.8932 16.2334C12.7591 15.844 12.7185 15.4285 12.7747 15.0205C12.8309 14.6125 12.9823 14.2234 13.2167 13.8848L0.987151 17.9618C0.798185 18.0246 0.591988 18.0098 0.413922 17.9206C0.235856 17.8315 0.100508 17.6752 0.0376512 17.4863C-0.0252051 17.2973 -0.0104202 17.0911 0.0787533 16.913C0.167927 16.735 0.324185 16.5996 0.513151 16.5368L1.10565 16.3395L0.112651 13.2885C-0.0705979 12.729 -0.0272422 12.12 0.233416 11.592C0.494074 11.0641 0.951268 10.6594 1.5069 10.4648L1.9569 11.844C2.04885 12.1279 2.19636 12.3907 2.39085 12.6171C2.58534 12.8435 2.82292 13.0289 3.08976 13.1626C3.3566 13.2962 3.64737 13.3755 3.94513 13.3957C4.24289 13.4159 4.5417 13.3766 4.82415 13.2803L12.0002 10.8308V12.7095L13.5002 12.2093V3.75C13.5013 2.7558 13.8968 1.80267 14.5998 1.09967C15.3028 0.396662 16.256 0.00119089 17.2502 0C17.4491 0 17.6398 0.0790176 17.7805 0.21967C17.9211 0.360322 18.0002 0.551088 18.0002 0.75C18.0002 0.948912 17.9211 1.13968 17.7805 1.28033C17.6398 1.42098 17.4491 1.5 17.2502 1.5C16.6534 1.5 16.0811 1.73705 15.6592 2.15901C15.2372 2.58097 15.0002 3.15326 15.0002 3.75V12.75C15.0002 12.7635 14.9949 12.7755 14.9942 12.7883C15.3665 12.7319 15.7466 12.7566 16.1085 12.8607C16.4704 12.9648 16.8056 13.1459 17.091 13.3915C17.3765 13.6371 17.6055 13.9416 17.7624 14.2839C17.9193 14.6262 18.0004 14.9984 18.0002 15.375ZM4.3404 11.85L10.9322 9.61725C11.1197 9.55365 11.2745 9.41843 11.3628 9.2411C11.451 9.06377 11.4655 8.85874 11.4032 8.67075L10.3209 5.40375C10.2371 5.10987 10.0948 4.83593 9.90258 4.59833C9.71039 4.36073 9.47223 4.16435 9.20236 4.02094C8.93249 3.87753 8.63646 3.79005 8.332 3.76373C8.02753 3.73741 7.72088 3.77279 7.4304 3.86775L3.75615 5.13C3.19063 5.31717 2.72241 5.72095 2.45416 6.25282C2.1859 6.78469 2.13951 7.40123 2.32515 7.96725L3.3864 11.364C3.41631 11.4591 3.46488 11.5473 3.52927 11.6234C3.59366 11.6995 3.67257 11.762 3.7614 11.8072C3.85022 11.8525 3.94718 11.8796 4.04659 11.8869C4.14601 11.8943 4.24589 11.8817 4.3404 11.85Z" fill="currentColor"/>
</g>
<defs>
<clipPath id="clip0_2087_6847">
<rect width="18" height="18" fill="white"/>
</clipPath>
</defs>
</svg>
