<?xml version="1.0" encoding="UTF-8" standalone="no" ?>
<!DOCTYPE svg PUBLIC "-//W3C//DTD SVG 1.1//EN" "http://www.w3.org/Graphics/SVG/1.1/DTD/svg11.dtd">
<svg xmlns="http://www.w3.org/2000/svg" xmlns:xlink="http://www.w3.org/1999/xlink" version="1.1" width="1080" height="1080" viewBox="0 0 1080 1080" xml:space="preserve">
<desc>Created with Fabric.js 5.2.4</desc>
<defs>
</defs>
<g transform="matrix(1 0 0 1 540 540)" id="ba3e7749-5176-4f15-bfda-d2b9266f5a7b"  >
<rect style="stroke: none; stroke-width: 1; stroke-dasharray: none; stroke-linecap: butt; stroke-dashoffset: 0; stroke-linejoin: miter; stroke-miterlimit: 4; fill: rgb(255,255,255); fill-rule: nonzero; opacity: 1; visibility: hidden;" vector-effect="non-scaling-stroke"  x="-540" y="-540" rx="0" ry="0" width="1080" height="1080" />
</g>
<g transform="matrix(1 0 0 1 540 540)" id="2bd88c66-42e9-476c-b583-37c45cc2caa0"  >
</g>
<g transform="matrix(1 0 0 1 540 540)" id="c7e96458-ba7c-470b-966f-de95b8c23a0c"  >
<path style="stroke: rgb(249,249,249); stroke-width: 0; stroke-dasharray: none; stroke-linecap: butt; stroke-dashoffset: 0; stroke-linejoin: miter; stroke-miterlimit: 4; fill: rgb(255,255,255); fill-rule: nonzero; opacity: 1;" vector-effect="non-scaling-stroke"  transform=" translate(-514.58, -514.55)" d="M 412.6847 684.353864 C 412.6847 534.287324 534.317947 412.65208300000006 684.384487 412.65208300000006 C 834.4510270000001 412.65208300000006 956.086268 534.3032730000001 956.086268 684.353864 C 956.086268 834.410436 834.45003 956.065613 684.384487 956.065613 C 534.323928 956.06661 412.6847 834.410435 412.6847 684.353864 z M 174.13632 616.743175 C 153.07576600000002 616.743175 124.00448600000001 633.555133 124.00448600000001 654.314637 L 124.00448600000001 923.7585409999999 C 124.00448600000001 979.1188789999999 169.507923 1023.987319 225.658767 1023.987319 L 633.675474 1023.987319 C 639.8161 1023.987319 645.7872610000001 1023.488892 651.623847 1022.4671149999999 C 662.3848959999999 1023.488891 673.340331 1023.987319 684.3904679999999 1023.987319 C 871.962678 1023.987319 1024.0179429999998 871.9220849999999 1024.0179429999998 684.364828 C 1024.0179429999998 512.751269 896.7195689999999 370.866914 731.4270669999999 347.947226 L 471.808165 37.436887 C 463.41464699999995 25.831502 440.913637 5.251432000000001 430.99493099999995 6.048915999999998 C 419.60087899999996 0.740663999999998 401.21189599999997 18.700998999999996 387.5300629999999 37.436887 L 14.435177 483.668027 C 2.0323079999999987 498.486275 2.0323079999999987 522.555338 14.435177 537.373586 C 26.841037 552.2217400000001 46.954578 552.2217400000001 59.358444000000006 537.373586 L 429.666123 94.553683 L 641.170826 347.452786 C 474.02616700000004 368.692774 344.75900500000006 511.442399 344.75900500000006 684.363832 C 344.75900500000006 795.438392 398.07280000000003 894.081174 480.52267100000006 956.065613 L 278.3266 956.065613 C 230.61513 956.065613 191.92719 917.925944 191.92719 870.854454 L 191.92719 654.31364 C 191.92719 633.555134 195.17893 616.743175 174.13632 616.743175 z M 565.520503 650.396001 C 546.764678 650.396001 531.557656 665.583086 531.557656 684.3538639999999 C 531.557656 703.0947369999999 546.764678 718.3266799999999 565.520503 718.3266799999999 L 667.409045 718.3266799999999 L 667.409045 820.2152219999999 C 667.409045 838.9560949999999 682.611083 854.168101 701.366908 854.168101 C 720.127718 854.168101 735.334739 838.956095 735.334739 820.2152219999999 L 735.334739 718.3266799999999 L 837.218296 718.3266799999999 C 855.979106 718.3266799999999 871.181143 703.0947369999999 871.181143 684.3538639999999 C 871.181143 665.583086 855.979105 650.396001 837.218296 650.396001 L 735.333742 650.396001 L 735.333742 548.503472 C 735.333742 529.757615 720.121736 514.545609 701.3609260000001 514.545609 C 682.610085 514.545609 667.4030630000001 529.742662 667.4030630000001 548.503472 L 667.4030630000001 650.406966 L 565.520503 650.406966 L 565.520503 650.396001 z" stroke-linecap="round" />
</g>
</svg>