<svg xmlns="http://www.w3.org/2000/svg" xmlns:xlink="http://www.w3.org/1999/xlink" version="1.1" width="1000" height="1000" viewBox="0 0 1000 1000" xml:space="preserve">
<desc>Created with Fabric.js 3.5.0</desc>
<defs>
</defs>
<rect x="0" y="0" width="100%" height="100%" fill="#ffffff"/>
<g transform="matrix(-32.4219 0 0 32.4219 499.9997 499.9996)" id="308285">
<path style="stroke: none; stroke-width: 1; stroke-dasharray: none; stroke-linecap: butt; stroke-dashoffset: 0; stroke-linejoin: miter; stroke-miterlimit: 4; is-custom-font: none; font-file-url: none; fill: #90A4B7; fill-rule: nonzero; opacity: 1;" vector-effect="non-scaling-stroke" transform=" translate(-16, -15.9803)" d="M 29.6 9.2 l -9 -7 c -0.3 -0.3 -0.8 -0.3 -1.2 -0.1 L 8.7 9 H 3 c -0.6 0 -1 0.4 -1 1 s 0.4 1 1 1 h 4 v 5 H 3 c -0.6 0 -1 0.4 -1 1 v 5 c 0 0.6 0.4 1 1 1 h 10 c 0.6 0 1 -0.4 1 -1 v -5 c 0 -0.6 -0.4 -1 -1 -1 H 9 v -5 c 0 0 0 0 0 0 c 0 0 0 0 0 0 h 8 v 14.5 l -3.6 2.7 c -0.3 0.3 -0.5 0.7 -0.3 1.1 c 0.1 0.4 0.5 0.7 0.9 0.7 h 12 c 0.4 0 0.8 -0.3 0.9 -0.7 c 0.1 -0.4 0 -0.9 -0.3 -1.1 L 23 25.5 V 11 h 6 c 0.4 0 0.8 -0.3 0.9 -0.7 C 30.1 9.9 30 9.5 29.6 9.2 z M 5.9 18 L 4 20.4 V 18 H 5.9 z M 8 18.6 L 9.9 21 H 6.1 L 8 18.6 z M 12 20.4 L 10.1 18 H 12 V 20.4 z M 19 4.8 V 9 h -1 h -5.6 L 19 4.8 z M 22 9 h -1 V 5 l 5.1 4 H 22 z" stroke-linecap="round"/>
</g>
</svg>