<svg width="44" height="44" viewBox="0 0 44 44" xmlns="http://www.w3.org/2000/svg">
<g id="004-user 1" clip-path="url(#clip0_2087_6912)">
<path id="Vector" d="M22 44C16.1236 44 10.5989 41.7116 6.44359 37.5564C2.28843 33.4011 0 27.8764 0 22C0 16.1236 2.28843 10.5989 6.44359 6.44359C10.5989 2.28843 16.1236 0 22 0C27.8764 0 33.4011 2.28843 37.5564 6.44359C41.7116 10.5989 44 16.1236 44 22C44 27.8764 41.7116 33.4011 37.5564 37.5564C33.4011 41.7116 27.8764 44 22 44ZM22 3.4375C11.7646 3.4375 3.4375 11.7646 3.4375 22C3.4375 32.2354 11.7646 40.5625 22 40.5625C32.2354 40.5625 40.5625 32.2354 40.5625 22C40.5625 11.7646 32.2354 3.4375 22 3.4375ZM21.9141 23.6328C17.365 23.6328 13.6641 19.9319 13.6641 15.3828C13.6641 10.8337 17.365 7.13281 21.9141 7.13281C26.4632 7.13281 30.1641 10.8337 30.1641 15.3828C30.1641 19.9319 26.4632 23.6328 21.9141 23.6328ZM21.9141 10.5703C19.2604 10.5703 17.1016 12.7292 17.1016 15.3828C17.1016 18.0364 19.2604 20.1953 21.9141 20.1953C24.5677 20.1953 26.7266 18.0364 26.7266 15.3828C26.7266 12.7292 24.5677 10.5703 21.9141 10.5703ZM32.8034 33.6421C33.5378 33.0406 33.6455 31.9577 33.044 31.2233C30.6136 28.2563 27.0225 26.5547 23.1915 26.5547H21.1522C17.3212 26.5547 13.7301 28.2563 11.2998 31.2234C10.6984 31.9578 10.806 33.0406 11.5405 33.6422C12.2748 34.2438 13.3577 34.1359 13.9593 33.4017C15.7339 31.2348 18.3556 29.9922 21.1522 29.9922H23.1915C25.9881 29.9922 28.6099 31.2348 30.3846 33.4016C30.7245 33.8164 31.2177 34.0312 31.7152 34.0312C32.0984 34.0312 32.4839 33.9038 32.8034 33.6421Z" fill="currentColor"/>
</g>
<defs>
<clipPath id="clip0_2087_6912">
<rect width="44" height="44" />
</clipPath>
</defs>
</svg>
