<svg width="24" height="24" viewBox="0 0 24 24" fill="none" xmlns="http://www.w3.org/2000/svg">
<g id="trash-xmark 1">
<path id="Vector" d="M22 4H17.899C17.434 1.721 15.415 0 13 0H11C8.586 0 6.566 1.721 6.101 4H2C1.448 4 1 4.447 1 5C1 5.553 1.448 6 2 6H2.86L4.156 19.479C4.404 22.057 6.544 24 9.133 24H14.86C17.453 24 19.593 22.053 19.838 19.472L21.114 6H21.999C22.551 6 22.999 5.553 22.999 5C22.999 4.447 22.552 4 22 4ZM11 2H13C14.302 2 15.402 2.839 15.816 4H8.185C8.599 2.839 9.699 2 11.001 2H11ZM15.707 16.293C16.098 16.684 16.098 17.316 15.707 17.707C15.512 17.902 15.256 18 15 18C14.744 18 14.488 17.902 14.293 17.707L12 15.414L9.707 17.707C9.512 17.902 9.256 18 9 18C8.744 18 8.488 17.902 8.293 17.707C7.902 17.316 7.902 16.684 8.293 16.293L10.586 14L8.293 11.707C7.902 11.316 7.902 10.684 8.293 10.293C8.684 9.902 9.316 9.902 9.707 10.293L12 12.586L14.293 10.293C14.684 9.902 15.316 9.902 15.707 10.293C16.098 10.684 16.098 11.316 15.707 11.707L13.414 14L15.707 16.293Z" fill="currentColor"/>
</g>
</svg>
