<svg width="24" height="24" viewBox="0 0 24 24" fill="none" xmlns="http://www.w3.org/2000/svg">
<g id="couch 1">
<path id="Vector" d="M2 8V7C2 3.686 4.686 1 8 1H16C19.314 1 22 3.686 22 7V8C19.791 8 18 9.791 18 12V15H6V12C6 9.791 4.209 8 2 8ZM21.664 10.027C20.681 10.187 20 11.11 20 12.107V16C20 16.552 19.552 17 19 17H5C4.448 17 4 16.552 4 16V12.107C4 11.111 3.319 10.187 2.336 10.027C1.083 9.823 0 10.785 0 12V16C0 17.636 0.786 19.088 2 20V22C2 22.552 2.448 23 3 23C3.552 23 4 22.552 4 22V20.9C4.323 20.966 4.658 21 5 21H19C19.342 21 19.677 20.966 20 20.9V22C20 22.552 20.448 23 21 23C21.552 23 22 22.552 22 22V20C23.214 19.088 24 17.636 24 16V12C24 10.785 22.917 9.824 21.664 10.027Z" fill="#90A4B7"/>
</g>
</svg>
