<svg width="24" height="24" viewBox="0 0 24 24" fill="none" xmlns="http://www.w3.org/2000/svg">
<g id="arrow_forward">
<mask id="mask0_2087_7323" style="mask-type:alpha" maskUnits="userSpaceOnUse" x="0" y="0" width="24" height="24">
<rect id="Bounding box" width="24" height="24" transform="matrix(-1 0 0 1 24 0)" fill="#D9D9D9"/>
</mask>
<g mask="url(#mask0_2087_7323)">
<path id="arrow_forward_2" d="M8.60222 13.325H19.1555C19.5235 13.325 19.8363 13.1962 20.094 12.9385C20.3516 12.681 20.4805 12.3682 20.4805 12C20.4805 11.6318 20.3516 11.319 20.094 11.0615C19.8363 10.8038 19.5235 10.675 19.1555 10.675H8.60222L12.951 6.32599C13.217 6.06015 13.3481 5.74674 13.3445 5.38574C13.341 5.0249 13.2062 4.71157 12.9402 4.44574C12.6742 4.1964 12.3608 4.0699 12 4.06624C11.6391 4.06257 11.3257 4.19374 11.0597 4.45974L4.45972 11.0597C4.33155 11.1881 4.2348 11.3341 4.16947 11.4977C4.1043 11.6616 4.07172 11.829 4.07172 12C4.07172 12.171 4.1043 12.3384 4.16947 12.5022C4.2348 12.6659 4.33155 12.8119 4.45972 12.9402L11.074 19.5542C11.3326 19.8131 11.6419 19.9425 12.0017 19.9425C12.3614 19.9425 12.6742 19.8131 12.9402 19.5542C13.2062 19.2884 13.3392 18.9732 13.3392 18.6087C13.3392 18.2442 13.2062 17.929 12.9402 17.663L8.60222 13.325Z" fill="white"/>
</g>
</g>
</svg>
