<!-- sample rectangle -->
<svg xmlns="http://www.w3.org/2000/svg" width="24" height="24" viewBox="0 0 24 24" fill="none">
  <g clip-path="url(#clip0_2087_7343)">
    <path d="M10.125 12.75H6.375C5.85722 12.75 5.4375 12.3303 5.4375 11.8125V8.0625C5.4375 7.54472 5.85722 7.125 6.375 7.125H10.125C10.6428 7.125 11.0625 7.54472 11.0625 8.0625V11.8125C11.0625 12.3303 10.6428 12.75 10.125 12.75ZM7.3125 10.875H9.1875V9H7.3125V10.875Z" fill="#90A4B7"/>
    <path d="M17.625 12.75H13.875C13.3572 12.75 12.9375 12.3303 12.9375 11.8125V8.0625C12.9375 7.54472 13.3572 7.125 13.875 7.125H17.625C18.1428 7.125 18.5625 7.54472 18.5625 8.0625V11.8125C18.5625 12.3303 18.1428 12.75 17.625 12.75ZM14.8125 10.875H16.6875V9H14.8125V10.875Z" fill="#90A4B7"/>
    <path d="M17.625 20.25H13.875C13.3572 20.25 12.9375 19.8303 12.9375 19.3125V15.5625C12.9375 15.0447 13.3572 14.625 13.875 14.625H17.625C18.1428 14.625 18.5625 15.0447 18.5625 15.5625V19.3125C18.5625 19.8303 18.1428 20.25 17.625 20.25ZM14.8125 18.375H16.6875V16.5H14.8125V18.375Z" fill="#90A4B7"/>
    <path d="M23.0625 22.125H11.0625V17.4375C11.0625 15.8867 9.80081 14.625 8.25 14.625C6.69919 14.625 5.4375 15.8867 5.4375 17.4375V22.125H3.5625V6.5625C3.5625 6.20484 3.76153 5.88314 4.08187 5.72297L11.5819 1.97297C11.7119 1.90795 11.8525 1.875 12 1.875C12.1475 1.875 12.2881 1.90795 12.4181 1.97297L19.9181 5.72297C20.2385 5.88314 20.4375 6.20484 20.4375 6.5625V19.3125C20.4375 19.8303 20.8572 20.25 21.375 20.25C21.8928 20.25 22.3125 19.8303 22.3125 19.3125V6.5625C22.3125 5.49005 21.7163 4.52573 20.7567 4.04587L13.2567 0.295875C12.8695 0.102328 12.4349 0 12 0C11.5651 0 11.1305 0.102328 10.7433 0.295875L3.24333 4.04587C2.28366 4.52573 1.6875 5.49005 1.6875 6.5625V22.125H0.9375C0.419719 22.125 0 22.5447 0 23.0625C0 23.5803 0.419719 24 0.9375 24H23.0625C23.5803 24 24 23.5803 24 23.0625C24 22.5447 23.5803 22.125 23.0625 22.125ZM7.3125 17.4375C7.3125 16.9206 7.73306 16.5 8.25 16.5C8.76694 16.5 9.1875 16.9206 9.1875 17.4375V22.125H7.3125V17.4375Z" fill="#90A4B7"/>
  </g>
  <defs>
    <clipPath id="clip0_2087_7343">
      <rect width="24" height="24" fill="white"/>
    </clipPath>
  </defs>
</svg>