<svg width="24" height="24" viewBox="0 0 24 24" fill="none" xmlns="http://www.w3.org/2000/svg">
<g id="wrench-alt 1" clip-path="url(#clip0_2087_8073)">
<path id="Vector" d="M23.7367 5.48013C23.6057 5.02313 22.6108 4.30013 21.7908 5.12013C20.9708 5.94013 18.4748 8.43613 18.4748 8.43613C17.6877 9.22313 16.4007 9.20013 15.6217 8.40013C14.8228 7.62113 14.7978 6.33313 15.5848 5.54613C15.5848 5.54613 18.0807 3.05013 18.9007 2.23013C19.7207 1.41013 18.9978 0.415133 18.5408 0.284133C17.7928 0.070133 17.0178 -0.023867 16.2238 0.00513297C12.4508 0.139133 9.27075 3.20413 9.01675 6.97013C8.97175 7.63513 9.01175 8.28713 9.13375 8.92013C9.31575 9.86013 8.97075 10.8251 8.29375 11.5031L0.86975 18.9061C-0.29225 20.0691 -0.28525 21.9651 0.86275 23.1371C2.03475 24.2861 3.93075 24.2931 5.09375 23.1311L12.5177 15.7271C13.1947 15.0501 14.1597 14.7051 15.1007 14.8871C15.7338 15.0091 16.3857 15.0491 17.0508 15.0041C20.8178 14.7501 23.8818 11.5701 24.0158 7.79713C24.0438 7.00313 23.9508 6.22813 23.7367 5.48013Z" fill="#90A4B7"/>
</g>
<defs>
<clipPath id="clip0_2087_8073">
<rect width="24" height="24" fill="white"/>
</clipPath>
</defs>
</svg>
