<svg width="36" height="36" viewBox="0 0 36 36" fill="none" xmlns="http://www.w3.org/2000/svg">
<g id="camera 1" clip-path="url(#clip0_2087_7694)">
<path id="Vector" d="M26.5819 4.5L24.4624 1.752C24.0402 1.20871 23.4999 0.768625 22.8824 0.465081C22.265 0.161537 21.5865 0.00249457 20.8984 0L15.1024 0C14.4144 0.00249457 13.7359 0.161537 13.1184 0.465081C12.501 0.768625 11.9607 1.20871 11.5384 1.752L9.41895 4.5H26.5819Z" fill="#90A4B7"/>
<path id="Vector_2" d="M18 27C21.3137 27 24 24.3137 24 21C24 17.6863 21.3137 15 18 15C14.6863 15 12 17.6863 12 21C12 24.3137 14.6863 27 18 27Z" fill="#90A4B7"/>
<path id="Vector_3" d="M28.5 7.5H7.5C5.51161 7.50238 3.60534 8.29332 2.19933 9.69933C0.793323 11.1053 0.00238179 13.0116 0 15L0 28.5C0.00238179 30.4884 0.793323 32.3947 2.19933 33.8007C3.60534 35.2067 5.51161 35.9976 7.5 36H28.5C30.4884 35.9976 32.3947 35.2067 33.8007 33.8007C35.2067 32.3947 35.9976 30.4884 36 28.5V15C35.9976 13.0116 35.2067 11.1053 33.8007 9.69933C32.3947 8.29332 30.4884 7.50238 28.5 7.5ZM18 30C16.22 30 14.4799 29.4722 12.9999 28.4832C11.5198 27.4943 10.3663 26.0887 9.68508 24.4442C9.0039 22.7996 8.82567 20.99 9.17293 19.2442C9.5202 17.4984 10.3774 15.8947 11.636 14.636C12.8947 13.3774 14.4984 12.5202 16.2442 12.1729C17.99 11.8257 19.7996 12.0039 21.4442 12.6851C23.0887 13.3663 24.4943 14.5198 25.4832 15.9999C26.4722 17.4799 27 19.22 27 21C26.9976 23.3862 26.0486 25.674 24.3613 27.3613C22.674 29.0486 20.3862 29.9976 18 30Z" fill="#90A4B7"/>
</g>
<defs>
<clipPath id="clip0_2087_7694">
<rect width="36" height="36" fill="white"/>
</clipPath>
</defs>
</svg>
