<svg width="18" height="18" viewBox="0 0 18 18" xmlns="http://www.w3.org/2000/svg">
<g id="envelope-dot 1" clip-path="url(#clip0_2087_6855)">
<path id="Vector" d="M15 6C13.3425 6 12 4.6575 12 3C12 1.3425 13.3425 0 15 0C16.6575 0 18 1.3425 18 3C18 4.6575 16.6575 6 15 6ZM9 11.565C9.5775 11.565 10.155 11.3475 10.59 10.905L14.0925 7.4025C12.045 6.9825 10.5 5.1675 10.5 2.9925C10.5 2.7375 10.53 2.49 10.5675 2.2425H3.75C2.3925 2.2425 1.215 2.97 0.555 4.05L7.41 10.9125C7.845 11.3475 8.4225 11.5725 9 11.5725V11.565ZM16.32 7.2975L11.6475 11.97C10.92 12.6975 9.9525 13.065 8.9925 13.065C8.0325 13.065 7.0725 12.6975 6.3375 11.97L0.0375 5.655C0.03 5.7675 0 5.88 0 6V14.25C0 16.32 1.68 18 3.75 18H14.25C16.32 18 18 16.32 18 14.25L17.985 6.3525C17.505 6.78 16.9425 7.1025 16.32 7.2975Z" fill="currentColor"/>
</g>
<defs>
<clipPath id="clip0_2087_6855">
<rect width="18" height="18" fill="white"/>
</clipPath>
</defs>
</svg>
