<svg xmlns="http://www.w3.org/2000/svg" xmlns:xlink="http://www.w3.org/1999/xlink" width="500" zoomAndPan="magnify" viewBox="0 0 375 374.999991" height="500" preserveAspectRatio="xMidYMid meet" version="1.0"><path fill="#90A4B7" d="M 292.96875 86.71875 L 292.96875 300 C 301.171875 310.546875 314.0625 316.40625 328.125 316.40625 L 339.84375 316.40625 C 346.875 316.40625 351.5625 311.71875 351.5625 304.6875 L 351.5625 82.03125 C 351.5625 75 346.875 70.3125 339.84375 70.3125 L 328.125 70.3125 C 314.0625 70.3125 301.171875 76.171875 292.96875 86.71875 Z M 292.96875 86.71875 " fill-opacity="1" fill-rule="nonzero"/><path fill="#90A4B7" d="M 269.53125 105.46875 L 187.5 105.46875 C 180.46875 105.46875 175.78125 110.15625 175.78125 117.1875 L 175.78125 175.78125 L 140.625 175.78125 C 139.453125 175.78125 137.109375 175.78125 135.9375 176.953125 L 73.828125 203.90625 C 67.96875 206.25 60.9375 206.25 55.078125 202.734375 C 44.53125 195.703125 43.359375 178.125 55.078125 169.921875 C 60.9375 166.40625 66.796875 165.234375 72.65625 167.578125 C 84.375 172.265625 97.265625 174.609375 110.15625 174.609375 C 117.1875 174.609375 121.875 169.921875 121.875 162.890625 C 121.875 155.859375 117.1875 151.171875 110.15625 151.171875 C 100.78125 151.171875 90.234375 148.828125 80.859375 145.3125 C 67.96875 139.453125 52.734375 141.796875 41.015625 150 C 29.296875 158.203125 22.265625 171.09375 22.265625 185.15625 C 22.265625 199.21875 29.296875 213.28125 42.1875 221.484375 C 55.078125 229.6875 69.140625 230.859375 83.203125 225 L 142.96875 199.21875 L 175.78125 199.21875 L 175.78125 269.53125 C 175.78125 276.5625 180.46875 281.25 187.5 281.25 L 269.53125 281.25 Z M 269.53125 105.46875 " fill-opacity="1" fill-rule="nonzero"/></svg>