<svg width="20" height="19" viewBox="0 0 20 19" fill="none" xmlns="http://www.w3.org/2000/svg">
<g id="Vector">
<path d="M19.9617 3.785L12.9467 10.8C12.1645 11.5802 11.1048 12.0184 10 12.0184C8.89521 12.0184 7.83552 11.5802 7.05333 10.8L0.0383333 3.785C0.0266667 3.91667 0 4.03583 0 4.16667V14.1667C0.00132321 15.2713 0.440735 16.3304 1.22185 17.1115C2.00296 17.8926 3.062 18.332 4.16667 18.3333H15.8333C16.938 18.332 17.997 17.8926 18.7782 17.1115C19.5593 16.3304 19.9987 15.2713 20 14.1667V4.16667C20 4.03583 19.9733 3.91667 19.9617 3.785Z" fill="white"/>
<path d="M11.7683 9.62167L19.38 2.00917C19.0113 1.39777 18.4912 0.891698 17.87 0.539775C17.2488 0.187853 16.5473 0.00195056 15.8333 0H4.16667C3.45268 0.00195056 2.75125 0.187853 2.13002 0.539775C1.50879 0.891698 0.988732 1.39777 0.62 2.00917L8.23167 9.62167C8.70131 10.0894 9.33715 10.3521 10 10.3521C10.6628 10.3521 11.2987 10.0894 11.7683 9.62167Z" fill="white"/>
</g>
</svg>
