<svg width="24px" height="24px" viewBox="0 0 122.999 122.999" xmlns="http://www.w3.org/2000/svg">
  <g>
    <g>
      <path 
        d="M57.101 18.59C44.776 18.117 7.073 31.199 1.185 35.979c-1.911 1.551-1.135 4.474-0.269 5.455
           c3.525 4.493 29.15-3.731 31.068-4.232c6.02-1.498 24.223-5.452 24.917 0.971c-13.448 0.668-19.365 4.438-19.46 6.519
           c-0.128 2.809 3.107 3.342 5.703 3.585c5.618 0.528 13.061-0.633 19.646 0.299c14.809 2.096 20.24 1.036 30.826-5.495
           c2.092-1.291 7.566-2.224 12.733-2.652v-24.59c-11.064 1.856-24.001 2.854-29.426 2.83C70.312 18.63 63.697 18.844 57.101 18.59z"
        fill="#90A4B7" 
        stroke="#FFFFFF" 
        stroke-width="0" 
        stroke-linecap="round" 
      />
      <path 
        d="M108.947 9.89v33.975h14.052V9.89H108.947z M116.34 18.625c-1.715 0-3.104-1.39-3.104-3.104s1.39-3.104 3.104-3.104
           c1.715 0 3.105 1.39 3.105 3.104S118.056 18.625 116.34 18.625z"
        fill="#90A4B7" 
        stroke="#FFFFFF" 
        stroke-width="0" 
        stroke-linecap="round" 
      />
      <path 
        d="M69.031 76.229l-3.633-2.979l-3.271 2.979l-3.198-2.905l-4.143 2.905V55.959H30v57.15h63v-57.15H69.031V76.229z
           M80.911 88.637l7.434 7.431h-4.646v12.307h-5.572V96.066h-4.644L80.911 88.637z M66.235 96.066v12.306h-5.572V96.066H56.02
           l7.431-7.431l7.431 7.431H66.235z"
        fill="#90A4B7" 
        stroke="#FFFFFF" 
        stroke-width="0" 
        stroke-linecap="round" 
      />
    </g>
  </g>
</svg>
