<svg width="36" height="36" viewBox="0 0 36 36" fill="none" xmlns="http://www.w3.org/2000/svg">
<g id="link-alt 1" clip-path="url(#clip0_2087_7706)">
<path id="Vector" d="M11.8438 24.156C10.9648 23.2785 10.9648 21.852 11.8438 20.9745C12.7228 20.0955 14.1463 20.0955 15.0253 20.9745C17.0143 22.9635 20.4853 22.965 22.4743 20.9745L29.9578 13.491C32.0113 11.4375 32.0113 8.09553 29.9578 6.04203C27.9043 3.98853 24.5623 3.98853 22.5088 6.04203C21.6298 6.92103 20.2063 6.92103 19.3273 6.04203C18.4483 5.16453 18.4483 3.73803 19.3273 2.86053C23.1343 -0.947975 29.3323 -0.947975 33.1393 2.86053C36.9478 6.66903 36.9478 12.864 33.1393 16.6725L25.6558 24.156C23.7508 26.061 21.2503 27.012 18.7498 27.012C16.2493 27.012 13.7473 26.0595 11.8438 24.156ZM9.76778 35.9955C12.2683 35.9955 14.7688 35.043 16.6738 33.1395C17.5528 32.262 17.5528 30.8355 16.6738 29.958C15.7948 29.079 14.3713 29.079 13.4923 29.958C11.4373 32.013 8.09528 32.0115 6.04328 29.958C3.98978 27.9045 3.98978 24.5625 6.04328 22.509L13.4848 15.0675C15.5398 13.0125 18.8818 13.0125 20.9338 15.0675C21.8128 15.9465 23.2363 15.9465 24.1153 15.0675C24.9943 14.19 24.9943 12.7635 24.1153 11.886C20.3068 8.07753 14.1118 8.07753 10.3033 11.886L2.86028 19.3275C-0.948219 23.136 -0.948219 29.331 2.86028 33.1395C4.76528 35.0445 7.26728 35.9955 9.76778 35.9955Z" fill="#90A4B7"/>
</g>
<defs>
<clipPath id="clip0_2087_7706">
<rect width="36" height="36" fill="white"/>
</clipPath>
</defs>
</svg>
