<svg width="24" height="24" viewBox="0 0 24 24" fill="none" xmlns="http://www.w3.org/2000/svg">
<g id="arrows-to-line-2 1" clip-path="url(#clip0_2087_8098)">
<path id="Vector" d="M24 12C24 12.828 23.329 13.5 22.5 13.5H1.5C0.671 13.5 0 12.828 0 12C0 11.172 0.671 10.5 1.5 10.5H22.5C23.329 10.5 24 11.172 24 12ZM12.707 15.293C12.316 14.902 11.683 14.902 11.293 15.293L8.13 18.293C7.5 18.923 7.946 20 8.837 20H10.5V22.5C10.5 23.328 11.171 24 12 24C12.829 24 13.5 23.328 13.5 22.5V20H15.163C16.054 20 16.5 18.923 15.87 18.293L12.707 15.293ZM11.293 8.707C11.684 9.098 12.317 9.098 12.707 8.707L15.87 5.707C16.5 5.077 16.054 4 15.163 4H13.5V1.5C13.5 0.672 12.829 0 12 0C11.171 0 10.5 0.672 10.5 1.5V4H8.837C7.946 4 7.5 5.077 8.13 5.707L11.293 8.707Z" fill="#90A4B7"/>
</g>
<defs>
<clipPath id="clip0_2087_8098">
<rect width="24" height="24" fill="white"/>
</clipPath>
</defs>
</svg>
