<svg width="36" height="36" viewBox="0 0 36 36" fill="none" xmlns="http://www.w3.org/2000/svg">
<g id="inbox-out 1" clip-path="url(#clip0_2087_7701)">
<path id="Vector" d="M36 22.5V28.5C36 32.6355 32.6355 36 28.5 36H7.5C3.3645 36 0 32.6355 0 28.5V22.5C0 20.019 2.019 18 4.5 18H9C10.6545 18 12 19.3455 12 21C12 22.6545 13.3455 24 15 24H21C22.6545 24 24 22.6545 24 21C24 19.3455 25.3455 18 27 18H31.5C33.981 18 36 20.019 36 22.5ZM13.0605 7.9395L16.5 4.5V15C16.5 15.8295 17.1705 16.5 18 16.5C18.8295 16.5 19.5 15.8295 19.5 15V4.5L22.9395 7.9395C23.232 8.232 23.616 8.379 24 8.379C24.384 8.379 24.768 8.232 25.0605 7.9395C25.647 7.353 25.647 6.405 25.0605 5.8185L20.121 0.879C19.542 0.3 18.7815 0.009 18.021 0.0045L18 0L17.979 0.0045C17.217 0.009 16.458 0.3 15.879 0.879L10.9395 5.8185C10.353 6.405 10.353 7.353 10.9395 7.9395C11.526 8.526 12.474 8.526 13.0605 7.9395Z" fill="#90A4B7"/>
</g>
<defs>
<clipPath id="clip0_2087_7701">
<rect width="36" height="36" fill="white"/>
</clipPath>
</defs>
</svg>
